<svg xmlns="http://www.w3.org/2000/svg" viewBox="0 0 520.76 393">
  <defs>
    <style>
      .ad53469c-9d99-4441-92d0-b5baceffac90 {
        fill: #f9b03b;
        stroke: #a57b52;
        stroke-miterlimit: 10;
        stroke-width: 9px;
      }
    </style>
  </defs>
  <title>Asset 4whiteuh</title>
  <g id="b2d45e6b-4ebb-4acf-9112-74ebfbc7dc5f" data-name="Layer 2">
    <g id="ade2ac54-a469-45f9-a887-7600c12af5fe" data-name="Layer 1">
      <path class="ad53469c-9d99-4441-92d0-b5baceffac90" d="M219.53,11.55l-89,89H28.5a24,24,0,0,0-24,24v144a24,24,0,0,0,24,24H130.56l89,88.95c15,15,41,4.47,41-17v-336C260.5,7.06,234.54-3.46,219.53,11.55ZM465.9,196.14l45.64-45.64a16.14,16.14,0,0,0,0-22.82l-22.82-22.82a16.14,16.14,0,0,0-22.82,0L420.26,150.5l-45.64-45.64a16.14,16.14,0,0,0-22.82,0L329,127.68a16.14,16.14,0,0,0,0,22.82l45.64,45.64L329,241.77a16.14,16.14,0,0,0,0,22.82l22.82,22.82a16.14,16.14,0,0,0,22.82,0l45.63-45.63,45.64,45.64a16.14,16.14,0,0,0,22.82,0l22.82-22.82a16.14,16.14,0,0,0,0-22.82Z"/>
    </g>
  </g>
</svg>
