<svg xmlns="http://www.w3.org/2000/svg" viewBox="0 0 585.36 489.02">
  <defs>
    <style>
      .a6f9403e-060c-44bf-ae7b-8f2c292591f9 {
        fill: #f9b03b;
        stroke: #a57b52;
        stroke-miterlimit: 10;
        stroke-width: 9px;
      }
    </style>
  </defs>
  <title>Asset 2whiteuh</title>
  <g id="b81b84f4-16d3-498f-9d95-2ed505b9d3de" data-name="Layer 2">
    <g id="adfe1de6-7145-4d2d-9597-fd1a8616db01" data-name="Layer 1">
      <path class="a6f9403e-060c-44bf-ae7b-8f2c292591f9" d="M219.53,59.1l-89,89H28.5a24,24,0,0,0-24,24v144a24,24,0,0,0,24,24H130.56l89,88.95c15,15,41,4.47,41-17v-336C260.5,54.61,234.54,44.09,219.53,59.1ZM453.21,8.47a24.2,24.2,0,1,0-26.56,40.46,233.65,233.65,0,0,1,0,391.16,24.2,24.2,0,1,0,26.56,40.45,282,282,0,0,0,0-472.07Zm31.65,236A184.64,184.64,0,0,0,399.09,88.26,23.9,23.9,0,0,0,366,95.72a24.29,24.29,0,0,0,7.41,33.36,136.67,136.67,0,0,1,0,230.84A24.28,24.28,0,0,0,366,393.28a23.94,23.94,0,0,0,33.12,7.46A184.62,184.62,0,0,0,484.86,244.5ZM343.09,167.63a24,24,0,1,0-23.16,42.06,39.42,39.42,0,0,1,0,69.62,24,24,0,1,0,23.16,42.06,87.43,87.43,0,0,0,0-153.74Z"/>
    </g>
  </g>
</svg>
